<svg width="229" height="45" viewBox="0 0 229 45" fill="none" xmlns="http://www.w3.org/2000/svg">
<g filter="url(#filter0_d_171_1359)">
<path d="M9.88813 33.408L6.43213 30.112V22.24L9.88813 19.104V33.408ZM9.82413 3.68V17.984L6.36813 14.88V6.976L9.82413 3.68ZM24.0259 16.384V2.016L27.4819 5.184V13.088L24.0259 16.384ZM43.5139 2.016V16.384L40.0579 13.216V5.344L43.5139 2.016ZM23.9299 17.472L27.3859 20.768V28.672L23.9299 31.808V17.472ZM43.4179 31.808L39.9619 28.48V20.608L43.4179 17.472V31.808ZM29.1139 11.488V4.992L38.2019 20.288V26.816L29.1139 11.488ZM51.7316 19.104L55.1556 22.432V30.272L51.7316 33.408V19.104ZM55.4436 20.256C54.6543 19.6373 53.9076 19.0507 53.2036 18.496L55.4436 16.8H64.1796L66.4196 18.496L64.1796 20.256H55.4436ZM52.6276 2.304H66.9316L63.8276 5.76L55.9236 5.76L52.6276 2.304ZM51.6996 17.984V3.68L55.1236 6.784V14.72L51.6996 17.984ZM77.7734 34.816L81.0694 31.36H88.9734L92.0774 34.816H77.7734ZM76.8134 19.104L80.2694 22.432V30.272L76.8134 33.408V19.104ZM93.1014 33.408L89.6454 30.112V22.24L93.1014 19.104V33.408ZM77.7414 2.304L92.0454 2.304L88.8774 5.76H81.0374L77.7414 2.304ZM76.7174 17.984V3.68L80.1734 6.784V14.72L76.7174 17.984ZM93.0054 3.68V17.984L89.5494 14.88V6.976L93.0054 3.68ZM103.367 34.816L106.663 31.36H114.567L117.671 34.816H103.367ZM102.407 19.104L105.863 22.432V30.272L102.407 33.408V19.104ZM118.695 33.408L115.239 30.112V22.24L118.695 19.104V33.408ZM106.119 20.256C105.372 19.6587 104.615 19.072 103.847 18.496L106.119 16.8H114.855L117.095 18.496L114.855 20.256H106.119ZM103.335 2.304H117.639L114.471 5.76H106.631L103.335 2.304ZM102.311 17.984V3.68L105.767 6.784V14.72L102.311 17.984ZM128.001 19.104L131.457 22.432V30.272L128.001 33.408V19.104ZM144.289 33.408L140.833 30.112V22.24L144.289 19.104V33.408ZM131.713 20.256C130.966 19.6587 130.209 19.072 129.441 18.496L131.713 16.8H140.449L142.689 18.496L140.449 20.256H131.713ZM128.929 2.304H143.233L140.065 5.76H132.225L128.929 2.304ZM127.905 17.984V3.68L131.361 6.784V14.72L127.905 17.984ZM144.193 3.68V17.984L140.737 14.88V6.976L144.193 3.68ZM155.035 34.816L158.331 31.36H166.235L169.371 34.816H155.035ZM154.107 19.104L157.531 22.432V30.272L154.107 33.408V19.104ZM154.011 17.984V3.68L157.435 6.784V14.72L154.011 17.984ZM179.188 19.104L182.644 22.432V30.272L179.188 33.408V19.104ZM195.476 33.408L192.02 30.112V22.24L195.476 19.104V33.408ZM182.9 20.256C182.154 19.6587 181.396 19.072 180.628 18.496L182.9 16.8H191.636L193.876 18.496L191.636 20.256H182.9ZM180.116 2.304H194.42L191.252 5.76L183.412 5.76L180.116 2.304ZM179.092 17.984V3.68L182.548 6.784V14.72L179.092 17.984ZM195.38 3.68V17.984L191.924 14.88V6.976L195.38 3.68ZM203.374 9.92V4.064L212.878 15.392L222.382 4.064V9.92L215.342 18.336L222.382 26.72V32.608L212.878 21.28L203.374 32.608V26.72L210.414 18.336L203.374 9.92Z" fill="white"/>
</g>
<defs>
<filter id="filter0_d_171_1359" x="0.368164" y="0.0159912" width="228.014" height="44.8" filterUnits="userSpaceOnUse" color-interpolation-filters="sRGB">
<feFlood flood-opacity="0" result="BackgroundImageFix"/>
<feColorMatrix in="SourceAlpha" type="matrix" values="0 0 0 0 0 0 0 0 0 0 0 0 0 0 0 0 0 0 127 0" result="hardAlpha"/>
<feOffset dy="4"/>
<feGaussianBlur stdDeviation="3"/>
<feComposite in2="hardAlpha" operator="out"/>
<feColorMatrix type="matrix" values="0 0 0 0 0.623529 0 0 0 0 0.517647 0 0 0 0 0.772549 0 0 0 1 0"/>
<feBlend mode="normal" in2="BackgroundImageFix" result="effect1_dropShadow_171_1359"/>
<feBlend mode="normal" in="SourceGraphic" in2="effect1_dropShadow_171_1359" result="shape"/>
</filter>
</defs>
</svg>
